
<svg width="563" height="147" viewBox="0 0 563 147" fill="none" xmlns="http://www.w3.org/2000/svg">
<path d="M43.08 0C31.233 0 20.6784 4.9542 12.7086 12.7086C4.9542 20.463 0 31.0176 0 43.08C0 54.927 4.9542 65.4816 12.7086 73.4514L86.16 146.903L159.611 73.4514C167.366 65.697 172.32 55.1424 172.32 43.08C172.32 31.233 167.366 20.6784 159.611 12.7086C151.857 4.9542 141.302 0 129.24 0C117.393 0 106.838 4.9542 98.8686 12.7086C91.1142 20.463 86.16 31.0176 86.16 43.08C86.16 31.233 81.2058 20.6784 73.4514 12.7086C65.697 4.9542 55.1424 0 43.08 0Z" fill="#fff5e4"/>
<path d="M238.08 0C226.233 0 215.678 4.9542 207.709 12.7086C199.954 20.463 195 31.0176 195 43.08C195 54.927 199.954 65.4816 207.709 73.4514L281.16 146.903L354.611 73.4514C362.366 65.697 367.32 55.1424 367.32 43.08C367.32 31.233 362.366 20.6784 354.611 12.7086C346.857 4.9542 336.302 0 324.24 0C312.393 0 301.838 4.9542 293.869 12.7086C286.114 20.463 281.16 31.0176 281.16 43.08C281.16 31.233 276.206 20.6784 268.451 12.7086C260.697 4.9542 250.142 0 238.08 0Z" fill="#fff5e4"/>
<path d="M433.08 0C421.233 0 410.678 4.9542 402.709 12.7086C394.954 20.463 390 31.0176 390 43.08C390 54.927 394.954 65.4816 402.709 73.4514L476.16 146.903L549.611 73.4514C557.366 65.697 562.32 55.1424 562.32 43.08C562.32 31.233 557.366 20.6784 549.611 12.7086C541.857 4.9542 531.302 0 519.24 0C507.393 0 496.838 4.9542 488.869 12.7086C481.114 20.463 476.16 31.0176 476.16 43.08C476.16 31.233 471.206 20.6784 463.451 12.7086C455.697 4.9542 445.142 0 433.08 0Z" fill="#fff5e4"/>
</svg>
