<svg width="712" height="225" viewBox="0 0 712 225" fill="none" xmlns="http://www.w3.org/2000/svg">
<path d="M30.592 167.64C22.2293 167.64 15.7013 165.293 11.008 160.6C6.4 155.821 4.096 149.549 4.096 141.784C4.096 134.872 5.46133 128.813 8.192 123.608C10.9227 118.403 14.464 114.392 18.816 111.576C23.168 108.76 27.7333 107.352 32.512 107.352C37.2053 107.352 40.832 108.76 43.392 111.576C46.0373 114.307 47.36 117.848 47.36 122.2C47.36 125.784 46.5493 128.813 44.928 131.288C43.392 133.763 41.344 135 38.784 135C37.1627 135 35.84 134.616 34.816 133.848C33.8773 133.08 33.408 132.013 33.408 130.648C33.408 130.051 33.4933 129.368 33.664 128.6C33.8347 127.832 33.9627 127.277 34.048 126.936C34.4747 125.656 34.688 124.461 34.688 123.352C34.688 122.243 34.3893 121.389 33.792 120.792C33.28 120.195 32.512 119.896 31.488 119.896C29.5253 119.896 27.6907 120.792 25.984 122.584C24.2773 124.291 22.912 126.637 21.888 129.624C20.864 132.611 20.352 135.896 20.352 139.48C20.352 149.379 24.6613 154.328 33.28 154.328C36.7787 154.328 40.5333 153.176 44.544 150.872C48.64 148.483 52.6507 144.941 56.576 140.248C57.6 139.053 58.752 138.456 60.032 138.456C61.1413 138.456 61.9947 138.968 62.592 139.992C63.2747 141.016 63.616 142.424 63.616 144.216C63.616 147.459 62.8053 150.104 61.184 152.152C57.1733 157.101 52.352 160.941 46.72 163.672C41.1733 166.317 35.7973 167.64 30.592 167.64ZM118.549 127.704C119.658 127.704 120.512 128.259 121.109 129.368C121.706 130.477 122.005 131.885 122.005 133.592C122.005 137.688 120.768 140.12 118.293 140.888C113.173 142.68 107.541 143.704 101.397 143.96C99.7757 151.128 96.5757 156.888 91.797 161.24C87.0183 165.507 81.5997 167.64 75.541 167.64C70.421 167.64 66.0263 166.403 62.357 163.928C58.773 161.453 56.0423 158.168 54.165 154.072C52.2877 149.976 51.349 145.539 51.349 140.76C51.349 134.275 52.5863 128.515 55.061 123.48C57.5357 118.36 60.949 114.392 65.301 111.576C69.653 108.675 74.4743 107.224 79.765 107.224C86.2503 107.224 91.4557 109.485 95.381 114.008C99.3917 118.445 101.738 123.949 102.421 130.52C106.432 130.264 111.21 129.411 116.757 127.96C117.44 127.789 118.037 127.704 118.549 127.704ZM76.565 154.072C79.2957 154.072 81.6423 152.963 83.605 150.744C85.653 148.525 87.0183 145.325 87.701 141.144C85.0557 139.352 83.0077 137.005 81.557 134.104C80.1917 131.203 79.509 128.131 79.509 124.888C79.509 123.523 79.637 122.157 79.893 120.792H79.253C75.8397 120.792 72.981 122.456 70.677 125.784C68.4583 129.027 67.349 133.635 67.349 139.608C67.349 144.301 68.245 147.885 70.037 150.36C71.9143 152.835 74.0903 154.072 76.565 154.072ZM120.107 167.64C116.864 167.64 114.56 165.933 113.195 162.52C111.915 159.107 111.275 153.645 111.275 146.136C111.275 135.043 112.854 124.504 116.011 114.52C116.779 112.045 118.016 110.253 119.723 109.144C121.515 107.949 123.99 107.352 127.147 107.352C128.854 107.352 130.048 107.565 130.731 107.992C131.414 108.419 131.755 109.229 131.755 110.424C131.755 111.789 131.115 114.861 129.835 119.64C128.982 123.053 128.299 126.04 127.787 128.6C127.275 131.16 126.848 134.317 126.507 138.072C129.323 130.733 132.48 124.76 135.979 120.152C139.478 115.544 142.891 112.259 146.219 110.296C149.632 108.333 152.747 107.352 155.563 107.352C161.11 107.352 163.883 110.125 163.883 115.672C163.883 119 162.944 125.016 161.067 133.72C159.446 141.144 158.635 146.051 158.635 148.44C158.635 151.853 159.872 153.56 162.347 153.56C164.054 153.56 166.059 152.536 168.363 150.488C170.752 148.355 173.91 144.941 177.835 140.248C178.859 139.053 180.011 138.456 181.291 138.456C182.4 138.456 183.254 138.968 183.851 139.992C184.534 141.016 184.875 142.424 184.875 144.216C184.875 147.629 184.064 150.275 182.443 152.152C178.774 156.675 174.806 160.387 170.539 163.288C166.358 166.189 161.579 167.64 156.203 167.64C151.851 167.64 148.566 166.403 146.347 163.928C144.128 161.368 143.019 157.699 143.019 152.92C143.019 150.531 143.616 146.264 144.811 140.12C145.92 134.744 146.475 131.032 146.475 128.984C146.475 127.619 146.006 126.936 145.067 126.936C143.958 126.936 142.379 128.387 140.331 131.288C138.368 134.104 136.32 137.859 134.187 142.552C132.139 147.245 130.475 152.195 129.195 157.4C128.256 161.411 127.147 164.141 125.867 165.592C124.672 166.957 122.752 167.64 120.107 167.64ZM224.341 131.16C226.73 131.16 227.925 132.952 227.925 136.536C227.925 143.277 222.634 146.648 212.053 146.648C210.005 146.648 207.061 146.264 203.221 145.496C204.33 150.787 205.226 156.675 205.909 163.16C206.677 169.56 207.061 174.851 207.061 179.032C207.061 188.248 205.568 195.288 202.581 200.152C199.594 205.016 195.669 207.448 190.805 207.448C184.661 207.448 180.266 203.096 177.621 194.392C175.061 185.688 173.781 172.547 173.781 154.968C173.781 138.584 175.53 121.987 179.029 105.176C182.613 88.28 187.477 74.328 193.621 63.32C199.85 52.2267 206.677 46.68 214.101 46.68C218.112 46.68 221.226 48.472 223.445 52.056C225.749 55.64 226.901 60.4613 226.901 66.52C226.901 86.5733 214.912 108.419 190.933 132.056C190.08 140.419 189.653 147.757 189.653 154.072C189.653 162.861 189.952 171.864 190.549 181.08C191.146 190.381 192.128 195.032 193.493 195.032C196.053 195.032 197.333 190.595 197.333 181.72C197.333 175.064 196.864 168.621 195.925 162.392C195.072 156.163 193.877 149.592 192.341 142.68C192.256 141.571 192.597 140.163 193.365 138.456C194.218 136.749 195.242 135.256 196.437 133.976C197.632 132.696 198.698 132.056 199.637 132.056C201.344 132.056 203.392 132.141 205.781 132.312C206.549 132.397 207.445 132.44 208.469 132.44C211.882 132.44 215.68 132.141 219.861 131.544C220.544 131.459 221.269 131.373 222.037 131.288C222.805 131.203 223.573 131.16 224.341 131.16ZM211.413 59.352C209.877 59.352 207.957 61.9547 205.653 67.16C203.434 72.3653 201.216 79.2773 198.997 87.896C196.778 96.4293 194.858 105.475 193.237 115.032C200.064 107.267 205.312 99.2027 208.981 90.84C212.65 82.392 214.528 74.4987 214.613 67.16C214.613 61.9547 213.546 59.352 211.413 59.352ZM275.357 138.456C276.466 138.456 277.32 138.968 277.917 139.992C278.6 141.016 278.941 142.424 278.941 144.216C278.941 147.629 278.13 150.275 276.509 152.152C273.352 155.992 268.872 159.533 263.069 162.776C257.352 166.019 251.208 167.64 244.637 167.64C235.677 167.64 228.722 165.208 223.773 160.344C218.824 155.48 216.349 148.824 216.349 140.376C216.349 134.488 217.586 129.027 220.061 123.992C222.536 118.872 225.949 114.819 230.301 111.832C234.738 108.845 239.73 107.352 245.277 107.352C250.226 107.352 254.194 108.845 257.181 111.832C260.168 114.733 261.661 118.701 261.661 123.736C261.661 129.624 259.528 134.701 255.261 138.968C251.08 143.149 243.954 146.477 233.885 148.952C236.018 152.877 240.072 154.84 246.045 154.84C249.885 154.84 254.237 153.517 259.101 150.872C264.05 148.141 268.317 144.6 271.901 140.248C272.925 139.053 274.077 138.456 275.357 138.456ZM243.101 119.896C239.944 119.896 237.256 121.731 235.037 125.4C232.904 129.069 231.837 133.507 231.837 138.712V138.968C236.872 137.773 240.84 135.981 243.741 133.592C246.642 131.203 248.093 128.429 248.093 125.272C248.093 123.651 247.624 122.371 246.685 121.432C245.832 120.408 244.637 119.896 243.101 119.896ZM292.327 170.456C287.89 170.456 284.476 169.432 282.087 167.384C279.783 165.336 278.631 163.032 278.631 160.472C278.631 158.253 279.442 156.333 281.063 154.712C282.684 153.091 285.074 152.28 288.231 152.28C289.34 152.28 290.62 152.408 292.071 152.664C293.607 152.835 294.759 152.963 295.527 153.048C295.442 150.829 294.93 148.739 293.991 146.776C293.138 144.813 292.028 142.936 290.663 141.144C289.298 139.267 288.018 137.645 286.823 136.28C284.178 141.315 281.532 145.496 278.887 148.824C276.327 152.152 273.511 155.309 270.439 158.296C268.903 159.832 267.282 160.6 265.575 160.6C264.21 160.6 263.1 160.131 262.247 159.192C261.394 158.168 260.967 156.931 260.967 155.48C260.967 153.773 261.564 152.195 262.759 150.744L264.423 148.696C269.116 142.893 272.658 138.115 275.047 134.36C276.498 131.885 278.204 128.6 280.167 124.504C282.13 120.323 284.05 116.013 285.927 111.576C287.548 107.821 290.919 105.944 296.039 105.944C298.428 105.944 300.092 106.157 301.031 106.584C301.97 107.011 302.439 107.693 302.439 108.632C302.439 109.144 302.268 109.955 301.927 111.064C301.586 112.173 301.116 113.283 300.519 114.392C298.983 117.464 298.215 120.067 298.215 122.2C298.215 123.48 298.642 124.888 299.495 126.424C300.434 127.96 301.842 129.88 303.719 132.184C306.45 135.768 308.498 138.84 309.863 141.4C311.314 143.875 312.039 146.605 312.039 149.592C312.039 150.445 311.954 151.64 311.783 153.176C315.964 151.555 320.871 147.245 326.503 140.248C327.527 139.053 328.679 138.456 329.959 138.456C331.068 138.456 331.922 138.968 332.519 139.992C333.202 141.016 333.543 142.424 333.543 144.216C333.543 147.459 332.732 150.104 331.111 152.152C326.844 157.443 322.748 161.069 318.823 163.032C314.983 164.909 310.204 165.933 304.487 166.104C301.074 169.005 297.02 170.456 292.327 170.456ZM346.952 170.456C342.515 170.456 339.101 169.432 336.712 167.384C334.408 165.336 333.256 163.032 333.256 160.472C333.256 158.253 334.067 156.333 335.688 154.712C337.309 153.091 339.699 152.28 342.856 152.28C343.965 152.28 345.245 152.408 346.696 152.664C348.232 152.835 349.384 152.963 350.152 153.048C350.067 150.829 349.555 148.739 348.616 146.776C347.763 144.813 346.653 142.936 345.288 141.144C343.923 139.267 342.643 137.645 341.448 136.28C338.803 141.315 336.157 145.496 333.512 148.824C330.952 152.152 328.136 155.309 325.064 158.296C323.528 159.832 321.907 160.6 320.2 160.6C318.835 160.6 317.725 160.131 316.872 159.192C316.019 158.168 315.592 156.931 315.592 155.48C315.592 153.773 316.189 152.195 317.384 150.744L319.048 148.696C323.741 142.893 327.283 138.115 329.672 134.36C331.123 131.885 332.829 128.6 334.792 124.504C336.755 120.323 338.675 116.013 340.552 111.576C342.173 107.821 345.544 105.944 350.664 105.944C353.053 105.944 354.717 106.157 355.656 106.584C356.595 107.011 357.064 107.693 357.064 108.632C357.064 109.144 356.893 109.955 356.552 111.064C356.211 112.173 355.741 113.283 355.144 114.392C353.608 117.464 352.84 120.067 352.84 122.2C352.84 123.48 353.267 124.888 354.12 126.424C355.059 127.96 356.467 129.88 358.344 132.184C361.075 135.768 363.123 138.84 364.488 141.4C365.939 143.875 366.664 146.605 366.664 149.592C366.664 150.445 366.579 151.64 366.408 153.176C370.589 151.555 375.496 147.245 381.128 140.248C382.152 139.053 383.304 138.456 384.584 138.456C385.693 138.456 386.547 138.968 387.144 139.992C387.827 141.016 388.168 142.424 388.168 144.216C388.168 147.459 387.357 150.104 385.736 152.152C381.469 157.443 377.373 161.069 373.448 163.032C369.608 164.909 364.829 165.933 359.112 166.104C355.699 169.005 351.645 170.456 346.952 170.456ZM394.537 98.904C390.953 98.904 388.265 98.0933 386.473 96.472C384.681 94.7653 383.785 92.4187 383.785 89.432C383.785 86.4453 384.937 83.9707 387.241 82.008C389.63 79.96 392.574 78.936 396.073 78.936C399.23 78.936 401.79 79.704 403.753 81.24C405.716 82.776 406.697 84.952 406.697 87.768C406.697 91.1813 405.588 93.912 403.369 95.96C401.15 97.9227 398.206 98.904 394.537 98.904ZM393.513 167.64C387.966 167.64 383.913 165.677 381.353 161.752C378.878 157.827 377.641 152.621 377.641 146.136C377.641 142.296 378.11 137.389 379.049 131.416C380.073 125.357 381.353 119.725 382.889 114.52C383.657 111.789 384.681 109.912 385.961 108.888C387.241 107.864 389.289 107.352 392.105 107.352C396.457 107.352 398.633 108.803 398.633 111.704C398.633 113.837 397.822 118.787 396.201 126.552C394.153 135.939 393.129 142.296 393.129 145.624C393.129 148.184 393.47 150.147 394.153 151.512C394.836 152.877 395.988 153.56 397.609 153.56C399.145 153.56 401.065 152.493 403.369 150.36C405.673 148.227 408.745 144.856 412.585 140.248C413.609 139.053 414.761 138.456 416.041 138.456C417.15 138.456 418.004 138.968 418.601 139.992C419.284 141.016 419.625 142.424 419.625 144.216C419.625 147.629 418.814 150.275 417.193 152.152C408.745 162.477 400.852 167.64 393.513 167.64ZM474.549 127.704C475.658 127.704 476.512 128.259 477.109 129.368C477.706 130.477 478.005 131.885 478.005 133.592C478.005 137.688 476.768 140.12 474.293 140.888C469.173 142.68 463.541 143.704 457.397 143.96C455.776 151.128 452.576 156.888 447.797 161.24C443.018 165.507 437.6 167.64 431.541 167.64C426.421 167.64 422.026 166.403 418.357 163.928C414.773 161.453 412.042 158.168 410.165 154.072C408.288 149.976 407.349 145.539 407.349 140.76C407.349 134.275 408.586 128.515 411.061 123.48C413.536 118.36 416.949 114.392 421.301 111.576C425.653 108.675 430.474 107.224 435.765 107.224C442.25 107.224 447.456 109.485 451.381 114.008C455.392 118.445 457.738 123.949 458.421 130.52C462.432 130.264 467.21 129.411 472.757 127.96C473.44 127.789 474.037 127.704 474.549 127.704ZM432.565 154.072C435.296 154.072 437.642 152.963 439.605 150.744C441.653 148.525 443.018 145.325 443.701 141.144C441.056 139.352 439.008 137.005 437.557 134.104C436.192 131.203 435.509 128.131 435.509 124.888C435.509 123.523 435.637 122.157 435.893 120.792H435.253C431.84 120.792 428.981 122.456 426.677 125.784C424.458 129.027 423.349 133.635 423.349 139.608C423.349 144.301 424.245 147.885 426.037 150.36C427.914 152.835 430.09 154.072 432.565 154.072ZM476.107 167.64C472.864 167.64 470.56 165.933 469.195 162.52C467.915 159.107 467.275 153.645 467.275 146.136C467.275 135.043 468.854 124.504 472.011 114.52C472.779 112.045 474.016 110.253 475.723 109.144C477.515 107.949 479.99 107.352 483.147 107.352C484.854 107.352 486.048 107.565 486.731 107.992C487.414 108.419 487.755 109.229 487.755 110.424C487.755 111.789 487.115 114.861 485.835 119.64C484.982 123.053 484.299 126.04 483.787 128.6C483.275 131.16 482.848 134.317 482.507 138.072C485.323 130.733 488.48 124.76 491.979 120.152C495.478 115.544 498.891 112.259 502.219 110.296C505.632 108.333 508.747 107.352 511.563 107.352C517.11 107.352 519.883 110.125 519.883 115.672C519.883 119 518.944 125.016 517.067 133.72C515.446 141.144 514.635 146.051 514.635 148.44C514.635 151.853 515.872 153.56 518.347 153.56C520.054 153.56 522.059 152.536 524.363 150.488C526.752 148.355 529.91 144.941 533.835 140.248C534.859 139.053 536.011 138.456 537.291 138.456C538.4 138.456 539.254 138.968 539.851 139.992C540.534 141.016 540.875 142.424 540.875 144.216C540.875 147.629 540.064 150.275 538.443 152.152C534.774 156.675 530.806 160.387 526.539 163.288C522.358 166.189 517.579 167.64 512.203 167.64C507.851 167.64 504.566 166.403 502.347 163.928C500.128 161.368 499.019 157.699 499.019 152.92C499.019 150.531 499.616 146.264 500.811 140.12C501.92 134.744 502.475 131.032 502.475 128.984C502.475 127.619 502.006 126.936 501.067 126.936C499.958 126.936 498.379 128.387 496.331 131.288C494.368 134.104 492.32 137.859 490.187 142.552C488.139 147.245 486.475 152.195 485.195 157.4C484.256 161.411 483.147 164.141 481.867 165.592C480.672 166.957 478.752 167.64 476.107 167.64ZM554.327 170.456C549.89 170.456 546.476 169.432 544.087 167.384C541.783 165.336 540.631 163.032 540.631 160.472C540.631 158.253 541.442 156.333 543.063 154.712C544.684 153.091 547.074 152.28 550.231 152.28C551.34 152.28 552.62 152.408 554.071 152.664C555.607 152.835 556.759 152.963 557.527 153.048C557.442 150.829 556.93 148.739 555.991 146.776C555.138 144.813 554.028 142.936 552.663 141.144C551.298 139.267 550.018 137.645 548.823 136.28C546.178 141.315 543.532 145.496 540.887 148.824C538.327 152.152 535.511 155.309 532.439 158.296C530.903 159.832 529.282 160.6 527.575 160.6C526.21 160.6 525.1 160.131 524.247 159.192C523.394 158.168 522.967 156.931 522.967 155.48C522.967 153.773 523.564 152.195 524.759 150.744L526.423 148.696C531.116 142.893 534.658 138.115 537.047 134.36C538.583 131.885 540.119 128.941 541.655 125.528C543.276 122.115 545.367 117.464 547.927 111.576C549.548 107.821 552.919 105.944 558.039 105.944C560.428 105.944 562.092 106.157 563.031 106.584C563.97 107.011 564.439 107.693 564.439 108.632C564.439 109.144 564.268 109.955 563.927 111.064C563.586 112.173 563.116 113.283 562.519 114.392C560.983 117.464 560.215 120.067 560.215 122.2C560.215 123.48 560.642 124.888 561.495 126.424C562.434 127.96 563.842 129.88 565.719 132.184C568.45 135.768 570.498 138.84 571.863 141.4C573.314 143.875 574.039 146.605 574.039 149.592C574.039 153.176 573.186 156.589 571.479 159.832C569.858 162.989 567.554 165.549 564.567 167.512C561.58 169.475 558.167 170.456 554.327 170.456Z" fill="#850E35"/>
<path d="M631.782 91C624.438 91 617.896 94.0352 612.955 98.7859C608.148 103.537 605.077 110.003 605.077 117.393C605.077 124.651 608.148 131.117 612.955 136L658.488 181L704.02 136C708.827 131.249 711.898 124.783 711.898 117.393C711.898 110.135 708.827 103.669 704.02 98.7859C699.213 94.0352 692.67 91 685.193 91C677.849 91 671.306 94.0352 666.366 98.7859C661.559 103.537 658.488 110.003 658.488 117.393C658.488 110.135 655.416 103.669 650.61 98.7859C645.803 94.0352 639.26 91 631.782 91Z" fill="#850E35"/>
</svg>
